<!DOCTYPE svg PUBLIC "-//W3C//DTD SVG 1.1//EN" "http://www.w3.org/Graphics/SVG/1.1/DTD/svg11.dtd">
<!-- Uploaded to: SVG Repo, www.svgrepo.com, Transformed by: SVG Repo Mixer Tools -->
<svg fill="#664b3f" height="800px" width="800px" version="1.1" id="Layer_1" xmlns="http://www.w3.org/2000/svg" xmlns:xlink="http://www.w3.org/1999/xlink" viewBox="0 0 512 512" xml:space="preserve" stroke="#664b3f">
<g id="SVGRepo_bgCarrier" stroke-width="0"/>
<g id="SVGRepo_tracerCarrier" stroke-linecap="round" stroke-linejoin="round"/>
<g id="SVGRepo_iconCarrier"> <g> <g> <path d="M503.83,32.681h-34.626v-8.17C469.203,10.995,458.208,0,444.693,0s-24.511,10.995-24.511,24.511v8.17h-26.456v-8.17 C393.726,10.995,382.731,0,369.215,0c-13.516,0-24.511,10.995-24.511,24.511v8.17h-26.456v-8.17 C318.248,10.995,307.252,0,293.738,0c-13.515,0-24.511,10.995-24.511,24.511v8.17h-26.456v-8.17 C242.771,10.995,231.776,0,218.26,0s-24.511,10.995-24.511,24.511v8.17h-26.456v-8.17C167.293,10.995,156.298,0,142.783,0 c-13.516,0-24.511,10.995-24.511,24.511v8.17H91.818v-8.17C91.818,10.995,80.823,0,67.307,0S42.797,10.995,42.797,24.511v8.17 H8.17c-4.512,0-8.17,3.658-8.17,8.17V503.83c0,4.512,3.658,8.17,8.17,8.17h495.66c4.512,0,8.17-3.658,8.17-8.17V40.851 C512,36.339,508.342,32.681,503.83,32.681z M436.522,24.511c0-4.506,3.665-8.17,8.17-8.17c4.506,0,8.17,3.665,8.17,8.17v32.681 c0,4.506-3.665,8.17-8.17,8.17c-4.506,0-8.17-3.665-8.17-8.17V24.511z M361.046,24.511c0-4.506,3.665-8.17,8.17-8.17 c4.506,0,8.17,3.665,8.17,8.17v32.681c0,4.506-3.665,8.17-8.17,8.17c-4.506,0-8.17-3.665-8.17-8.17V24.511z M285.569,24.511 c0-4.506,3.665-8.17,8.17-8.17c4.506,0,8.17,3.665,8.17,8.17v16.33c0,0.021,0,16.351,0,16.351c0,4.506-3.665,8.17-8.17,8.17 c-4.506,0-8.17-3.665-8.17-8.17V24.511z M210.091,24.511c0-4.506,3.665-8.17,8.17-8.17s8.17,3.665,8.17,8.17v32.681 c0,4.506-3.665,8.17-8.17,8.17s-8.17-3.665-8.17-8.17V24.511z M134.614,24.511c0-4.506,3.665-8.17,8.17-8.17s8.17,3.665,8.17,8.17 v32.681c0,4.506-3.665,8.17-8.17,8.17s-8.17-3.665-8.17-8.17V24.511z M59.137,24.511c0-4.506,3.665-8.17,8.17-8.17 s8.17,3.665,8.17,8.17v32.681c0,4.506-3.665,8.17-8.17,8.17s-8.17-3.665-8.17-8.17V24.511z M495.66,119.83H73.532 c-4.512,0-8.17,3.658-8.17,8.17s3.658,8.17,8.17,8.17H495.66V495.66H16.34V136.17h24.511c4.512,0,8.17-3.658,8.17-8.17 s-3.658-8.17-8.17-8.17H16.34V49.021h26.456v8.17c0,13.516,10.995,24.511,24.511,24.511s24.511-10.995,24.511-24.511v-8.17h26.456 v8.17c0,13.516,10.995,24.511,24.511,24.511c13.516,0,24.511-10.995,24.511-24.511v-8.17h26.456v8.17 c0,13.516,10.995,24.511,24.511,24.511s24.511-10.995,24.511-24.511v-8.17h26.456v8.17c0,13.516,10.995,24.511,24.511,24.511 c13.516,0,24.511-10.995,24.511-24.511v-8.17h26.456v8.17c0,13.516,10.995,24.511,24.511,24.511 c13.516,0,24.511-10.995,24.511-24.511v-8.17h26.456v8.17c0,13.516,10.995,24.511,24.511,24.511s24.511-10.995,24.511-24.511 v-8.17h26.454V119.83z"/> </g> </g> <g> <g> <path d="M454.809,348.656h-8.713c-2.123-16.429-10.602-31.266-24.016-41.553L294.079,208.94 c-11.019-8.449-24.186-12.914-38.079-12.914c-13.893,0-27.06,4.466-38.079,12.915L89.92,307.103 c-13.414,10.286-21.892,25.124-24.016,41.553h-8.745c-13.516,0-24.511,10.995-24.511,24.511c0,11.264,7.64,20.772,18.008,23.629 l4.963,17.372c3.467,12.133,16.067,21.637,28.685,21.637h343.356c12.618,0,25.219-9.505,28.685-21.637l4.963-17.372 c10.369-2.856,18.008-12.364,18.008-23.629C479.319,359.651,468.324,348.656,454.809,348.656z M99.864,320.07l128.001-98.162 c8.14-6.242,17.869-9.542,28.135-9.542c10.266,0,19.995,3.3,28.135,9.541l128.001,98.163c9.337,7.159,15.448,17.295,17.444,28.586 H82.419C84.416,337.364,90.527,327.229,99.864,320.07z M440.635,409.68c-1.463,5.12-7.646,9.785-12.973,9.785H84.306 c-5.327,0-11.51-4.665-12.973-9.786l-3.429-12h376.161L440.635,409.68z M454.809,381.336H57.282c-0.023,0-0.046,0-0.068,0h-0.056 c-4.506,0-8.17-3.666-8.17-8.17c0-4.505,3.665-8.17,8.17-8.17h397.65c4.506,0,8.17,3.665,8.17,8.17 C462.979,377.672,459.314,381.336,454.809,381.336z"/> </g> </g> <g> <g> <circle cx="203.83" cy="280.903" r="8.17"/> </g> </g> <g> <g> <circle cx="171.15" cy="313.584" r="8.17"/> </g> </g> <g> <g> <circle cx="340.85" cy="313.584" r="8.17"/> </g> </g> </g>
</svg>