<!DOCTYPE svg PUBLIC "-//W3C//DTD SVG 1.1//EN" "http://www.w3.org/Graphics/SVG/1.1/DTD/svg11.dtd">
<!-- Uploaded to: SVG Repo, www.svgrepo.com, Transformed by: SVG Repo Mixer Tools -->
<svg fill="#664b3f" height="800px" width="800px" version="1.1" xmlns="http://www.w3.org/2000/svg" viewBox="0 0 409.221 409.221" xmlns:xlink="http://www.w3.org/1999/xlink" enable-background="new 0 0 409.221 409.221">
<g id="SVGRepo_bgCarrier" stroke-width="0"/>
<g id="SVGRepo_tracerCarrier" stroke-linecap="round" stroke-linejoin="round"/>
<g id="SVGRepo_iconCarrier"> <path d="m387.059,389.218h-14.329v-18.114h14.327c5.523,0 10-4.477 10-10 0-55.795-42.81-101.781-97.305-106.843v-17.29c0-5.523-4.477-10-10-10s-10,4.477-10,10v17.29c-54.496,5.062-97.305,51.048-97.305,106.843 0,5.523 4.477,10 10,10h14.327v18.114h-14.327c-5.523,0-10,4.477-10,10s4.477,10 10,10h24.13c0.131,0.003 0.262,0.003 0.393,0h145.564c0.065,0.001 0.131,0.002 0.196,0.002s0.131,0 0.196-0.002h24.133c5.523,0 10-4.477 10-10s-4.478-10-10-10zm-34.33,0h-125.957v-18.114h125.957v18.114zm-149.714-38.113c4.978-43.447 41.978-77.305 86.736-77.305s81.758,33.858 86.736,77.305h-173.472zm-71.385-253.799c-29.383,1.42109e-14-52.4,16.809-52.4,38.267 0,21.457 23.017,38.265 52.4,38.265 29.383,0 52.399-16.808 52.399-38.265 0-21.459-23.016-38.267-52.399-38.267zm0,56.531c-19.094,0-32.4-9.625-32.4-18.265 0-8.64 13.306-18.267 32.4-18.267 19.093,0 32.399,9.627 32.399,18.267 0,8.639-13.306,18.265-32.399,18.265zm23.553,235.383h-123.021v-320.568h198.936v166.52c0,5.523 4.477,10 10,10s10-4.477 10-10v-176.52c0-5.523-4.477-10-10-10h-4.701v-38.652c0-2.858-1.223-5.58-3.36-7.478-2.137-1.897-4.984-2.789-7.822-2.452l-204.236,24.327c-5.03,0.599-8.817,4.864-8.817,9.93v364.893c0,5.523 4.477,10 10,10h133.021c5.523,0 10-4.477 10-10s-4.477-10-10-10zm-123.021-346.014l184.235-21.944v27.391h-184.235v-5.447zm82.627,317.362c-5.523,0-10-4.477-10-10s4.477-10 10-10h33.681c5.523,0 10,4.477 10,10s-4.477,10-10,10h-33.681z"/> </g>
</svg>