<!DOCTYPE svg PUBLIC "-//W3C//DTD SVG 1.1//EN" "http://www.w3.org/Graphics/SVG/1.1/DTD/svg11.dtd">
<!-- Uploaded to: SVG Repo, www.svgrepo.com, Transformed by: SVG Repo Mixer Tools -->
<svg fill="#664b3f" height="800px" width="800px" version="1.1" id="Capa_1" xmlns="http://www.w3.org/2000/svg" xmlns:xlink="http://www.w3.org/1999/xlink" viewBox="0 0 209.281 209.281" xml:space="preserve">
<g id="SVGRepo_bgCarrier" stroke-width="0"/>
<g id="SVGRepo_tracerCarrier" stroke-linecap="round" stroke-linejoin="round"/>
<g id="SVGRepo_iconCarrier"> <g> <path d="M104.641,0.001C46.941,0.001,0,46.942,0,104.642C0,162.34,46.941,209.28,104.641,209.28s104.641-46.94,104.641-104.639 C209.281,46.942,162.34,0.001,104.641,0.001z M104.641,194.28C55.212,194.28,15,154.068,15,104.642 c0-49.428,40.212-89.641,89.641-89.641c49.428,0,89.641,40.213,89.641,89.641C194.281,154.068,154.068,194.28,104.641,194.28z"/> <path d="M104.639,46.612c-25.133,0-45.58,20.45-45.58,45.588c0,41.655,39.783,68.14,41.476,69.246 c1.247,0.815,2.675,1.223,4.104,1.223c1.429,0,2.857-0.407,4.104-1.222c1.693-1.107,41.48-27.592,41.48-69.247 C150.223,67.062,129.773,46.612,104.639,46.612z M104.626,145.84c-9.189-7.29-30.568-27.104-30.568-53.64 c0-16.866,13.718-30.588,30.58-30.588c16.864,0,30.584,13.722,30.584,30.588C135.223,118.615,113.812,138.519,104.626,145.84z"/> </g> </g>
</svg>